<?xml version="1.0" encoding="utf-8"?>
<!-- Generator: Adobe Illustrator 15.1.0, SVG Export Plug-In . SVG Version: 6.00 Build 0)  -->
<!DOCTYPE svg PUBLIC "-//W3C//DTD SVG 1.1//EN" "http://www.w3.org/Graphics/SVG/1.1/DTD/svg11.dtd">
<svg version="1.1" id="Layer_1" xmlns="http://www.w3.org/2000/svg" xmlns:xlink="http://www.w3.org/1999/xlink" x="0px" y="0px"
	 width="576px" height="432px" viewBox="0 0 576 432" enable-background="new 0 0 576 432" xml:space="preserve">
<rect x="338.4" y="280.8" fill="#FFFAC2" stroke="#000000" stroke-miterlimit="10" width="64.8" height="79.199"/>
<polygon fill="none" stroke="#000000" stroke-miterlimit="10" points="360,295.199 381.601,302.399 360,338.399 381.601,331.199 "/>
<polygon fill="none" stroke="#000000" stroke-miterlimit="10" points="360,309.6 381.601,302.399 360,323.999 381.601,331.199 "/>
<rect x="273.601" y="259.199" fill="#FFFAC2" stroke="#000000" stroke-miterlimit="10" width="57.6" height="122.4"/>
<rect x="208.8" y="237.6" fill="#FFFAC2" stroke="#000000" stroke-miterlimit="10" width="57.6" height="165.6"/>
<rect x="144" y="216" fill="#FFFAC2" stroke="#000000" stroke-miterlimit="10" width="57.6" height="208.8"/>
<rect x="7.2" y="7.2" fill="#FFFAC2" stroke="#000000" stroke-miterlimit="10" width="86.4" height="187.2"/>
<rect x="100.8" y="43.2" fill="#FFFAC2" stroke="#000000" stroke-miterlimit="10" width="201.6" height="108"/>
<rect x="309.6" y="21.6" fill="#FFFAC2" stroke="#000000" stroke-miterlimit="10" width="216" height="151.2"/>
<rect x="136.8" y="64.8" fill="#FFFFFF" stroke="#000000" stroke-miterlimit="10" width="43.2" height="72"/>
<polygon fill="none" stroke="#000000" stroke-miterlimit="10" points="122.399,72 136.8,86.4 122.399,129.6 136.8,115.2 "/>
<polygon fill="none" stroke="#000000" stroke-miterlimit="10" points="122.399,86.4 136.8,93.6 122.399,115.2 136.8,108 "/>
<rect x="14.4" y="14.4" fill="#FFFFFF" stroke="#000000" stroke-miterlimit="10" width="72" height="14.4"/>
<rect x="14.4" y="43.2" fill="#FFFFFF" stroke="#000000" stroke-miterlimit="10" width="72" height="14.4"/>
<rect x="14.4" y="57.6" fill="#FFFFFF" stroke="#000000" stroke-miterlimit="10" width="72" height="14.4"/>
<rect x="14.4" y="72" fill="#FFFFFF" stroke="#000000" stroke-miterlimit="10" width="72" height="14.4"/>
<rect x="14.4" y="86.4" fill="#FFFFFF" stroke="#000000" stroke-miterlimit="10" width="72" height="14.4"/>
<rect x="14.4" y="100.801" fill="#FFFFFF" stroke="#000000" stroke-miterlimit="10" width="72" height="14.4"/>
<rect x="14.4" y="115.2" fill="#FFFFFF" stroke="#000000" stroke-miterlimit="10" width="72" height="14.4"/>
<rect x="14.4" y="129.601" fill="#FFFFFF" stroke="#000000" stroke-miterlimit="10" width="72" height="14.4"/>
<rect x="14.4" y="144" fill="#FFFFFF" stroke="#000000" stroke-miterlimit="10" width="72" height="14.4"/>
<rect x="14.4" y="172.8" fill="#FFFFFF" stroke="#000000" stroke-miterlimit="10" width="72" height="14.4"/>
<rect x="14.4" y="14.4" fill="none" width="72" height="14.4"/>
<text transform="matrix(1 0 0 1 19.3745 24.9204)" font-family="'MyriadPro-Regular'" font-size="12">Input Vector</text>
<rect x="14.4" y="172.801" fill="none" width="72" height="14.399"/>
<text transform="matrix(1 0 0 1 16.8125 183.3208)" font-family="'MyriadPro-Regular'" font-size="12">Latent Vector</text>
<rect x="14.4" y="86.4" fill="none" width="72" height="14.399"/>
<text transform="matrix(1 0 0 1 27.7686 96.9204)" font-family="'MyriadPro-Regular'" font-size="12">Mapping</text>
<rect x="14.4" y="100.801" fill="none" width="72" height="14.399"/>
<text transform="matrix(1 0 0 1 28.9741 111.3208)" font-family="'MyriadPro-Regular'" font-size="12">Network</text>
<g>
	<g>
		<line fill="none" stroke="#000000" stroke-miterlimit="10" x1="50.4" y1="28.8" x2="50.4" y2="39.67"/>
		<g>
			<polygon points="50.4,43.2 48.367,38.226 50.4,39.406 52.432,38.226 			"/>
		</g>
	</g>
</g>
<g>
	<g>
		<line fill="none" stroke="#000000" stroke-miterlimit="10" x1="50.4" y1="158.4" x2="50.4" y2="169.27"/>
		<g>
			<polygon points="50.4,172.8 48.367,167.826 50.4,169.006 52.432,167.826 			"/>
		</g>
	</g>
</g>
<rect x="158.399" y="72" fill="#2E3192" stroke="#000000" stroke-miterlimit="10" width="14.4" height="43.2"/>
<rect x="151.199" y="79.2" fill="#00A651" stroke="#000000" stroke-miterlimit="10" width="14.4" height="43.2"/>
<rect x="144" y="86.4" fill="#ED1C24" stroke="#000000" stroke-miterlimit="10" width="14.4" height="43.2"/>
<rect x="108" y="57.6" fill="#FFFFFF" stroke="#000000" stroke-miterlimit="10" width="14.4" height="86.4"/>
<g>
	<g>
		<line fill="none" stroke="#000000" stroke-miterlimit="10" x1="180" y1="100.8" x2="205.27" y2="100.8"/>
		<g>
			<polygon points="208.8,100.8 203.825,102.833 205.006,100.8 203.825,98.768 			"/>
		</g>
	</g>
</g>
<line fill="none" stroke="#000000" stroke-miterlimit="10" x1="194.4" y1="64.8" x2="194.399" y2="100.8"/>
<rect x="158.4" y="50.4" fill="none" width="72" height="14.399"/>
<text transform="matrix(1 0 0 1 180.3721 60.9199)" font-family="'MyriadPro-Regular'" font-size="12">Noise</text>
<rect x="108" y="57.6" fill="none" width="14.4" height="86.4"/>
<text transform="matrix(4.489659e-011 -1 1 4.489659e-011 118.519 129.0361)" font-family="'MyriadPro-Regular'" font-size="12">Fixed Input</text>
<rect x="136.8" y="136.8" fill="none" width="43.2" height="14.4"/>
<text transform="matrix(1 0 0 1 143.6099 147.3198)" font-family="'MyriadPro-Regular'" font-size="12">4x4x3</text>
<rect x="208.8" y="64.8" fill="#FFFFFF" stroke="#000000" stroke-miterlimit="10" width="14.4" height="72"/>
<rect x="237.6" y="64.8" fill="#FFFFFF" stroke="#000000" stroke-miterlimit="10" width="14.4" height="72"/>
<rect x="316.799" y="43.2" fill="#FFFFFF" stroke="#000000" stroke-miterlimit="10" width="14.4" height="115.2"/>
<rect x="331.199" y="43.2" fill="#FFFFFF" stroke="#000000" stroke-miterlimit="10" width="43.2" height="115.2"/>
<rect x="388.799" y="43.199" fill="#FFFFFF" stroke="#000000" stroke-miterlimit="10" width="14.4" height="115.2"/>
<rect x="431.999" y="43.2" fill="#FFFFFF" stroke="#000000" stroke-miterlimit="10" width="14.4" height="115.2"/>
<rect x="316.799" y="43.2" fill="none" width="14.4" height="115.201"/>
<text transform="matrix(4.489659e-011 -1 1 4.489659e-011 327.3184 126.2046)" font-family="'MyriadPro-Regular'" font-size="12">Upsample</text>
<rect x="237.599" y="64.799" fill="none" width="14.4" height="72.001"/>
<text transform="matrix(4.489659e-011 -1 1 4.489659e-011 248.1187 131.8193)" font-family="'MyriadPro-Regular'" font-size="12">Convolution</text>
<rect x="352.799" y="50.4" fill="#2E3192" stroke="#000000" stroke-miterlimit="10" width="14.4" height="86.4"/>
<rect x="345.598" y="57.6" fill="#00A651" stroke="#000000" stroke-miterlimit="10" width="14.4" height="86.4"/>
<rect x="338.399" y="64.8" fill="#ED1C24" stroke="#000000" stroke-miterlimit="10" width="14.4" height="86.4"/>
<rect x="388.798" y="43.199" fill="none" width="14.4" height="115.201"/>
<text transform="matrix(4.489659e-011 -1 1 4.489659e-011 399.3179 131.8193)" font-family="'MyriadPro-Regular'" font-size="12">Convolution</text>
<rect x="208.799" y="64.8" fill="none" width="14.4" height="72"/>
<text transform="matrix(4.489659e-011 -1 1 4.489659e-011 219.3188 116.1309)" font-family="'MyriadPro-Regular'" font-size="12">AdaIN</text>
<g>
	<line fill="#FFFFFF" x1="252" y1="100.8" x2="280.8" y2="100.8"/>
	<g>
		<line fill="none" stroke="#000000" stroke-miterlimit="10" x1="252" y1="100.8" x2="277.27" y2="100.8"/>
		<g>
			<polygon points="280.8,100.8 275.825,102.833 277.006,100.8 275.825,98.769 			"/>
		</g>
	</g>
</g>
<line fill="none" stroke="#000000" stroke-miterlimit="10" x1="266.4" y1="64.8" x2="266.399" y2="100.8"/>
<rect x="230.4" y="50.4" fill="none" width="72" height="14.399"/>
<text transform="matrix(1 0 0 1 252.3721 60.9199)" font-family="'MyriadPro-Regular'" font-size="12">Noise</text>
<rect x="331.2" y="158.4" fill="none" width="43.2" height="14.4"/>
<text transform="matrix(1 0 0 1 338.0098 168.9199)" font-family="'MyriadPro-Regular'" font-size="12">8x8x3</text>
<g>
	<line fill="#FFFFFF" x1="403.199" y1="100.799" x2="432" y2="100.799"/>
	<g>
		<line fill="none" stroke="#000000" stroke-miterlimit="10" x1="403.199" y1="100.799" x2="428.469" y2="100.799"/>
		<g>
			<polygon points="432,100.799 427.025,102.833 428.206,100.799 427.025,98.768 			"/>
		</g>
	</g>
</g>
<line fill="none" stroke="#000000" stroke-miterlimit="10" x1="417.6" y1="43.2" x2="417.599" y2="100.799"/>
<rect x="381.6" y="28.8" fill="none" width="72" height="14.399"/>
<text transform="matrix(1 0 0 1 403.5723 39.3198)" font-family="'MyriadPro-Regular'" font-size="12">Noise</text>
<rect x="431.999" y="43.2" fill="none" width="14.4" height="115.201"/>
<text transform="matrix(4.489659e-011 -1 1 4.489659e-011 442.5181 116.1299)" font-family="'MyriadPro-Regular'" font-size="12">AdaIN</text>
<g>
	<line fill="#FFFFFF" x1="223.2" y1="100.8" x2="237.6" y2="100.8"/>
	<g>
		<line fill="none" stroke="#000000" stroke-miterlimit="10" x1="223.2" y1="100.8" x2="234.069" y2="100.8"/>
		<g>
			<polygon points="237.6,100.8 232.625,102.833 233.806,100.8 232.625,98.768 			"/>
		</g>
	</g>
</g>
<g>
	<line fill="#FFFFFF" x1="374.399" y1="100.8" x2="388.799" y2="100.8"/>
	<g>
		<line fill="none" stroke="#000000" stroke-miterlimit="10" x1="374.399" y1="100.8" x2="385.269" y2="100.8"/>
		<g>
			<polygon points="388.799,100.8 383.825,102.833 385.005,100.8 383.825,98.768 			"/>
		</g>
	</g>
</g>
<rect x="460.799" y="43.199" fill="#FFFFFF" stroke="#000000" stroke-miterlimit="10" width="14.4" height="115.2"/>
<rect x="503.999" y="43.2" fill="#FFFFFF" stroke="#000000" stroke-miterlimit="10" width="14.4" height="115.2"/>
<rect x="460.798" y="43.199" fill="none" width="14.4" height="115.201"/>
<text transform="matrix(4.489659e-011 -1 1 4.489659e-011 471.3179 131.8193)" font-family="'MyriadPro-Regular'" font-size="12">Convolution</text>
<g>
	<line fill="#FFFFFF" x1="475.199" y1="100.8" x2="504" y2="100.8"/>
	<g>
		<line fill="none" stroke="#000000" stroke-miterlimit="10" x1="475.199" y1="100.8" x2="500.469" y2="100.8"/>
		<g>
			<polygon points="504,100.8 499.025,102.833 500.206,100.8 499.025,98.769 			"/>
		</g>
	</g>
</g>
<line fill="none" stroke="#000000" stroke-miterlimit="10" x1="489.6" y1="43.2" x2="489.599" y2="100.8"/>
<rect x="453.6" y="28.8" fill="none" width="72" height="14.399"/>
<text transform="matrix(1 0 0 1 475.5723 39.3198)" font-family="'MyriadPro-Regular'" font-size="12">Noise</text>
<rect x="503.999" y="43.2" fill="none" width="14.4" height="115.201"/>
<text transform="matrix(4.489659e-011 -1 1 4.489659e-011 514.5181 116.1299)" font-family="'MyriadPro-Regular'" font-size="12">AdaIN</text>
<g>
	<line fill="#FFFFFF" x1="446.399" y1="100.8" x2="460.799" y2="100.8"/>
	<g>
		<line fill="none" stroke="#000000" stroke-miterlimit="10" x1="446.399" y1="100.8" x2="457.269" y2="100.8"/>
		<g>
			<polygon points="460.799,100.8 455.825,102.833 457.005,100.8 455.825,98.769 			"/>
		</g>
	</g>
</g>
<rect x="280.8" y="64.8" fill="#FFFFFF" stroke="#000000" stroke-miterlimit="10" width="14.4" height="72"/>
<rect x="280.799" y="64.8" fill="none" width="14.4" height="72"/>
<text transform="matrix(4.489659e-011 -1 1 4.489659e-011 291.3188 116.1299)" font-family="'MyriadPro-Regular'" font-size="12">AdaIN</text>
<g>
	<line fill="#FFFFFF" x1="295.2" y1="100.8" x2="316.8" y2="100.8"/>
	<g>
		<line fill="none" stroke="#000000" stroke-miterlimit="10" x1="295.2" y1="100.8" x2="313.27" y2="100.8"/>
		<g>
			<polygon points="316.8,100.8 311.825,102.833 313.006,100.8 311.825,98.768 			"/>
		</g>
	</g>
</g>
<g>
	<line fill="#FFFFFF" x1="518.399" y1="100.8" x2="540" y2="100.8"/>
	<g>
		<line fill="none" stroke="#000000" stroke-miterlimit="10" x1="518.399" y1="100.8" x2="536.469" y2="100.8"/>
		<g>
			<polygon points="540,100.8 535.025,102.833 536.205,100.8 535.025,98.768 			"/>
		</g>
	</g>
</g>
<g>
	<g>
		<polyline fill="none" stroke="#000000" stroke-miterlimit="10" points="86.4,180 511.2,180 511.2,161.931 		"/>
		<g>
			<polygon points="511.2,158.4 513.232,163.375 511.2,162.194 509.167,163.375 			"/>
		</g>
	</g>
</g>
<g>
	<g>
		<line fill="none" stroke="#000000" stroke-miterlimit="10" x1="216" y1="180" x2="216" y2="140.331"/>
		<g>
			<polygon points="216,136.8 218.032,141.775 216,140.595 213.967,141.775 			"/>
		</g>
	</g>
</g>
<g>
	<g>
		<line fill="none" stroke="#000000" stroke-miterlimit="10" x1="288" y1="180" x2="288" y2="140.331"/>
		<g>
			<polygon points="288,136.8 290.032,141.775 288,140.595 285.967,141.775 			"/>
		</g>
	</g>
</g>
<g>
	<g>
		<line fill="none" stroke="#000000" stroke-miterlimit="10" x1="439.2" y1="180" x2="439.199" y2="161.931"/>
		<g>
			<polygon points="439.199,158.4 441.232,163.375 439.199,162.194 437.167,163.375 			"/>
		</g>
	</g>
</g>
<rect x="216" y="244.799" fill="#FFFFFF" stroke="#000000" stroke-miterlimit="10" width="14.4" height="144.001"/>
<rect x="244.8" y="266.399" fill="#FFFFFF" stroke="#000000" stroke-miterlimit="10" width="14.4" height="100.8"/>
<rect x="280.8" y="266.399" fill="#FFFFFF" stroke="#000000" stroke-miterlimit="10" width="14.4" height="100.8"/>
<rect x="180" y="244.799" fill="#FFFFFF" stroke="#000000" stroke-miterlimit="10" width="14.4" height="144.001"/>
<rect x="151.2" y="223.199" fill="#FFFFFF" stroke="#000000" stroke-miterlimit="10" width="14.4" height="187.2"/>
<rect x="381.601" y="287.999" fill="#FFFFFF" stroke="#000000" stroke-miterlimit="10" width="14.4" height="57.601"/>
<g>
	<g>
		<line fill="none" stroke="#000000" stroke-miterlimit="10" x1="396" y1="302.399" x2="414.07" y2="302.399"/>
		<g>
			<polygon points="417.601,302.399 412.626,304.433 413.807,302.399 412.626,300.367 			"/>
		</g>
	</g>
</g>
<g>
	<g>
		<line fill="none" stroke="#000000" stroke-miterlimit="10" x1="396" y1="331.199" x2="414.07" y2="331.199"/>
		<g>
			<polygon points="417.601,331.199 412.626,333.231 413.807,331.199 412.626,329.167 			"/>
		</g>
	</g>
</g>
<rect x="345.601" y="287.997" fill="#FFFFFF" stroke="#000000" stroke-miterlimit="10" width="14.4" height="57.601"/>
<rect x="309.601" y="287.999" fill="#FFFFFF" stroke="#000000" stroke-miterlimit="10" width="14.4" height="57.601"/>
<rect x="280.8" y="266.397" fill="none" width="14.4" height="100.802"/>
<text transform="matrix(4.489659e-011 -1 1 4.489659e-011 291.3198 347.8184)" font-family="'MyriadPro-Regular'" font-size="12">Convolution</text>
<rect x="216" y="244.799" fill="none" width="14.4" height="144.001"/>
<text transform="matrix(4.489659e-011 -1 1 4.489659e-011 226.52 347.8193)" font-family="'MyriadPro-Regular'" font-size="12">Convolution</text>
<rect x="151.2" y="223.197" fill="none" width="14.4" height="187.202"/>
<text transform="matrix(4.489659e-011 -1 1 4.489659e-011 161.7197 347.8184)" font-family="'MyriadPro-Regular'" font-size="12">Convolution</text>
<rect x="180" y="244.8" fill="none" width="14.4" height="144.002"/>
<text transform="matrix(4.489659e-011 -1 1 4.489659e-011 190.5195 349.9443)" font-family="'MyriadPro-Regular'" font-size="12">Downsample</text>
<rect x="244.8" y="266.397" fill="none" width="14.4" height="100.802"/>
<text transform="matrix(4.489659e-011 -1 1 4.489659e-011 255.3193 349.9424)" font-family="'MyriadPro-Regular'" font-size="12">Downsample</text>
<rect x="309.601" y="287.997" fill="none" width="14.4" height="57.603"/>
<text transform="matrix(4.489659e-011 -1 1 4.489659e-011 320.1201 336.1602)" font-family="'MyriadPro-Regular'" font-size="12">Dnsmp.</text>
<rect x="381.6" y="287.997" fill="none" width="14.4" height="57.603"/>
<text transform="matrix(4.489659e-011 -1 1 4.489659e-011 392.1196 337.4619)" font-family="'MyriadPro-Regular'" font-size="12">Softmax</text>
<rect x="345.601" y="287.997" fill="none" width="14.4" height="57.603"/>
<text transform="matrix(4.489659e-011 -1 1 4.489659e-011 356.1201 331.0303)" font-family="'MyriadPro-Regular'" font-size="12">Conv.</text>
<g>
	<line fill="#FFFFFF" x1="295.201" y1="316.8" x2="309.601" y2="316.8"/>
	<g>
		<line fill="none" stroke="#000000" stroke-miterlimit="10" x1="295.201" y1="316.8" x2="306.07" y2="316.8"/>
		<g>
			<polygon points="309.601,316.8 304.626,318.833 305.807,316.8 304.626,314.768 			"/>
		</g>
	</g>
</g>
<g>
	<line fill="#FFFFFF" x1="230.4" y1="316.8" x2="244.8" y2="316.8"/>
	<g>
		<line fill="none" stroke="#000000" stroke-miterlimit="10" x1="230.4" y1="316.8" x2="241.27" y2="316.8"/>
		<g>
			<polygon points="244.8,316.8 239.826,318.833 241.006,316.8 239.826,314.768 			"/>
		</g>
	</g>
</g>
<g>
	<line fill="#FFFFFF" x1="165.601" y1="316.8" x2="180" y2="316.8"/>
	<g>
		<line fill="none" stroke="#000000" stroke-miterlimit="10" x1="165.601" y1="316.8" x2="176.47" y2="316.8"/>
		<g>
			<polygon points="180,316.8 175.026,318.833 176.207,316.8 175.026,314.768 			"/>
		</g>
	</g>
</g>
<g>
	<line fill="#FFFFFF" x1="194.4" y1="316.8" x2="216" y2="316.801"/>
	<g>
		<line fill="none" stroke="#000000" stroke-miterlimit="10" x1="194.4" y1="316.8" x2="212.47" y2="316.801"/>
		<g>
			<polygon points="216,316.801 211.026,318.833 212.207,316.801 211.026,314.769 			"/>
		</g>
	</g>
</g>
<g>
	<line fill="#FFFFFF" x1="259.2" y1="316.8" x2="280.8" y2="316.801"/>
	<g>
		<line fill="none" stroke="#000000" stroke-miterlimit="10" x1="259.2" y1="316.8" x2="277.27" y2="316.801"/>
		<g>
			<polygon points="280.8,316.801 275.826,318.833 277.006,316.801 275.826,314.769 			"/>
		</g>
	</g>
</g>
<g>
	<line fill="#FFFFFF" x1="129.6" y1="316.8" x2="151.2" y2="316.8"/>
	<g>
		<line fill="none" stroke="#000000" stroke-miterlimit="10" x1="129.6" y1="316.8" x2="147.67" y2="316.8"/>
		<g>
			<polygon points="151.2,316.8 146.226,318.833 147.406,316.8 146.226,314.768 			"/>
		</g>
	</g>
</g>
<g>
	<line fill="#FFFFFF" x1="324" y1="316.8" x2="345.601" y2="316.801"/>
	<g>
		<line fill="none" stroke="#000000" stroke-miterlimit="10" x1="324" y1="316.8" x2="342.07" y2="316.801"/>
		<g>
			<polygon points="345.601,316.801 340.626,318.833 341.807,316.801 340.626,314.769 			"/>
		</g>
	</g>
</g>
<rect x="280.8" y="367.2" fill="none" width="43.2" height="14.4"/>
<text transform="matrix(1 0 0 1 287.6099 377.7207)" font-family="'MyriadPro-Regular'" font-size="12">4x4x3</text>
<rect x="216" y="388.8" fill="none" width="43.2" height="14.4"/>
<text transform="matrix(1 0 0 1 222.8105 399.3203)" font-family="'MyriadPro-Regular'" font-size="12">8x8x3</text>
<rect x="151.2" y="410.399" fill="none" width="43.2" height="14.4"/>
<text transform="matrix(1 0 0 1 151.8545 420.9199)" font-family="'MyriadPro-Regular'" font-size="12">16x16x3</text>
<rect x="338.4" y="345.6" fill="none" width="64.8" height="14.4"/>
<text transform="matrix(1 0 0 1 345.1504 356.1191)" font-family="'MyriadPro-Regular'" font-size="12">Prediction</text>
<rect x="547.2" y="86.4" fill="none" width="21.6" height="21.6"/>
<text transform="matrix(1 0 0 1 550.5483 105.4395)" font-family="'MyriadPro-Regular'" font-size="24">...</text>
<rect x="100.8" y="302.4" fill="none" width="21.6" height="21.6"/>
<text transform="matrix(1 0 0 1 104.1484 321.4395)" font-family="'MyriadPro-Regular'" font-size="24">...</text>
</svg>
