<?xml version="1.0" encoding="utf-8"?>
<!-- Generator: Adobe Illustrator 15.1.0, SVG Export Plug-In . SVG Version: 6.00 Build 0)  -->
<!DOCTYPE svg PUBLIC "-//W3C//DTD SVG 1.1//EN" "http://www.w3.org/Graphics/SVG/1.1/DTD/svg11.dtd">
<svg version="1.1" id="Layer_1" xmlns="http://www.w3.org/2000/svg" xmlns:xlink="http://www.w3.org/1999/xlink" x="0px" y="0px"
	 width="504px" height="417.6px" viewBox="144.5 252.5 504 417.6" enable-background="new 144.5 252.5 504 417.6"
	 xml:space="preserve">
<rect x="410.901" y="497.3" fill="#FFFAC2" stroke="#000000" stroke-miterlimit="10" width="71.998" height="122.398"/>
<polygon fill="none" stroke="#000000" stroke-miterlimit="10" points="432.5,547.701 446.899,540.5 432.5,562.1 446.899,569.301 "/>
<polygon fill="none" stroke="#000000" stroke-miterlimit="10" points="432.5,533.301 446.899,540.5 432.5,576.5 446.899,569.301 "/>
<rect x="346.1" y="475.699" fill="#FFFAC2" stroke="#000000" stroke-miterlimit="10" width="57.601" height="165.602"/>
<rect x="281.3" y="454.1" fill="#FFFAC2" stroke="#000000" stroke-miterlimit="10" width="57.6" height="208.801"/>
<rect x="158.901" y="281.301" fill="#FFFAC2" stroke="#000000" stroke-miterlimit="10" width="172.8" height="108"/>
<rect x="338.9" y="259.7" fill="#FFFAC2" stroke="#000000" stroke-miterlimit="10" width="172.801" height="151.2"/>
<rect x="194.901" y="302.9" fill="#FFFFFF" stroke="#000000" stroke-miterlimit="10" width="14.9" height="72"/>
<polygon fill="none" stroke="#000000" stroke-miterlimit="10" points="180.5,310.1 194.901,324.5 180.5,367.7 194.901,353.301 "/>
<polygon fill="none" stroke="#000000" stroke-miterlimit="10" points="180.5,324.5 194.901,331.7 180.5,353.301 194.901,346.1 "/>
<rect x="151.7" y="410.9" fill="#FFFFFF" stroke="#000000" stroke-miterlimit="10" width="72" height="14.4"/>
<rect x="151.7" y="410.9" fill="none" width="72" height="14.4"/>
<rect x="166.101" y="295.7" fill="#FFFFFF" stroke="#000000" stroke-miterlimit="10" width="14.4" height="86.399"/>
<g>
	<g>
		<g>
			<g>
				<line fill="none" stroke="#000000" stroke-miterlimit="10" x1="209.302" y1="338.9" x2="234.572" y2="338.9"/>
				<g>
					<polygon points="238.102,338.9 233.127,340.934 234.308,338.9 233.127,336.868 					"/>
				</g>
			</g>
		</g>
		<line fill="none" stroke="#000000" stroke-miterlimit="10" x1="223.702" y1="302.9" x2="223.701" y2="338.9"/>
	</g>
	<text transform="matrix(1 0 0 1 209.6743 299.0195)" font-family="'MyriadPro-Regular'" font-size="12">Noise</text>
</g>
<rect x="166.101" y="295.7" fill="none" width="14.4" height="86.399"/>
<text transform="matrix(4.489659e-011 -1 1 4.489659e-011 176.6196 367.1367)" font-family="'MyriadPro-Regular'" font-size="12">Fixed Input</text>
<rect x="238.101" y="302.9" fill="#FFFFFF" stroke="#000000" stroke-miterlimit="10" width="14.4" height="72"/>
<rect x="266.901" y="302.9" fill="#FFFFFF" stroke="#000000" stroke-miterlimit="10" width="14.4" height="72"/>
<rect x="374.9" y="281.299" fill="#FFFFFF" stroke="#000000" stroke-miterlimit="10" width="14.4" height="115.2"/>
<rect x="418.102" y="281.301" fill="#FFFFFF" stroke="#000000" stroke-miterlimit="10" width="14.4" height="115.199"/>
<text transform="matrix(4.489659e-011 -1 1 4.489659e-011 277.4199 369.9199)" font-family="'MyriadPro-Regular'" font-size="12">Convolution</text>
<text transform="matrix(4.489659e-011 -1 1 4.489659e-011 385.4199 369.9199)" font-family="'MyriadPro-Regular'" font-size="12">Convolution</text>
<rect x="266.9" y="302.9" fill="none" width="14.4" height="72"/>
<text transform="matrix(4.489659e-011 -1 1 4.489659e-011 248.6196 354.2305)" font-family="'MyriadPro-Regular'" font-size="12">AdaIN</text>
<g>
	<g>
		<line fill="none" x1="281.301" y1="338.9" x2="310.102" y2="338.9"/>
		<g>
			<line fill="none" stroke="#000000" stroke-miterlimit="10" x1="281.301" y1="338.9" x2="306.571" y2="338.9"/>
			<g>
				<polygon points="310.102,338.9 305.127,340.934 306.307,338.9 305.127,336.869 				"/>
			</g>
		</g>
	</g>
	<line fill="none" stroke="#000000" stroke-miterlimit="10" x1="295.701" y1="302.9" x2="295.7" y2="338.9"/>
	<text transform="matrix(1 0 0 1 281.6733 299.0195)" font-family="'MyriadPro-Regular'" font-size="12">Noise</text>
</g>
<g>
	<line fill="none" x1="389.301" y1="338.898" x2="418.102" y2="338.898"/>
	<g>
		<line fill="none" stroke="#000000" stroke-miterlimit="10" x1="389.301" y1="338.898" x2="414.57" y2="338.898"/>
		<g>
			<polygon points="418.102,338.898 413.127,340.934 414.309,338.898 413.127,336.868 			"/>
		</g>
	</g>
</g>
<line fill="none" stroke="#000000" stroke-miterlimit="10" x1="403.701" y1="281.301" x2="403.701" y2="338.898"/>
<text transform="matrix(1 0 0 1 389.6738 277.4199)" font-family="'MyriadPro-Regular'" font-size="12">Noise</text>
<text transform="matrix(4.489659e-011 -1 1 4.489659e-011 428.6201 354.2305)" font-family="'MyriadPro-Regular'" font-size="12">AdaIN</text>
<g>
	<line fill="none" x1="252.501" y1="338.9" x2="266.901" y2="338.9"/>
	<g>
		<line fill="none" stroke="#000000" stroke-miterlimit="10" x1="252.501" y1="338.9" x2="263.37" y2="338.9"/>
		<g>
			<polygon points="266.901,338.9 261.926,340.934 263.107,338.9 261.926,336.868 			"/>
		</g>
	</g>
</g>
<g>
	<line fill="none" x1="360.5" y1="338.9" x2="374.9" y2="338.9"/>
	<g>
		<line fill="none" stroke="#000000" stroke-miterlimit="10" x1="360.5" y1="338.9" x2="371.371" y2="338.9"/>
		<g>
			<polygon points="374.9,338.9 369.928,340.934 371.107,338.9 369.928,336.868 			"/>
		</g>
	</g>
</g>
<rect x="446.9" y="281.299" fill="#FFFFFF" stroke="#000000" stroke-miterlimit="10" width="14.4" height="115.2"/>
<rect x="490.102" y="281.301" fill="#FFFFFF" stroke="#000000" stroke-miterlimit="10" width="14.4" height="115.199"/>
<text transform="matrix(4.489659e-011 -1 1 4.489659e-011 457.4199 369.9199)" font-family="'MyriadPro-Regular'" font-size="12">Convolution</text>
<g>
	<line fill="none" x1="461.301" y1="338.9" x2="490.102" y2="338.9"/>
	<g>
		<line fill="none" stroke="#000000" stroke-miterlimit="10" x1="461.301" y1="338.9" x2="486.57" y2="338.9"/>
		<g>
			<polygon points="490.102,338.9 485.127,340.934 486.309,338.9 485.127,336.869 			"/>
		</g>
	</g>
</g>
<line fill="none" stroke="#000000" stroke-miterlimit="10" x1="475.701" y1="281.301" x2="475.701" y2="338.9"/>
<text transform="matrix(1 0 0 1 461.6738 277.4199)" font-family="'MyriadPro-Regular'" font-size="12">Noise</text>
<rect x="504.5" y="281.301" fill="none" width="14.4" height="115.2"/>
<text transform="matrix(4.489659e-011 -1 1 4.489659e-011 500.6201 354.2305)" font-family="'MyriadPro-Regular'" font-size="12">AdaIN</text>
<g>
	<line fill="none" x1="432.502" y1="338.9" x2="446.9" y2="338.9"/>
	<g>
		<line fill="none" stroke="#000000" stroke-miterlimit="10" x1="432.502" y1="338.9" x2="443.371" y2="338.9"/>
		<g>
			<polygon points="446.9,338.9 441.928,340.934 443.107,338.9 441.928,336.869 			"/>
		</g>
	</g>
</g>
<rect x="310.102" y="302.9" fill="#FFFFFF" stroke="#000000" stroke-miterlimit="10" width="14.4" height="72"/>
<text transform="matrix(4.489659e-011 -1 1 4.489659e-011 320.6201 354.2305)" font-family="'MyriadPro-Regular'" font-size="12">AdaIN</text>
<g>
	<line fill="none" x1="324.502" y1="338.9" x2="346.102" y2="338.9"/>
	<g>
		<line fill="none" stroke="#000000" stroke-miterlimit="10" x1="324.502" y1="338.9" x2="342.57" y2="338.9"/>
		<g>
			<polygon points="346.102,338.9 341.127,340.934 342.307,338.9 341.127,336.868 			"/>
		</g>
	</g>
</g>
<g>
	<g>
		<g>
			<g>
				<polyline fill="none" stroke="#000000" stroke-miterlimit="10" points="223.7,418.1 497.3,418.1 497.3,400.03 				"/>
				<g>
					<polygon points="497.3,396.5 499.332,401.475 497.3,400.295 495.268,401.475 					"/>
				</g>
			</g>
		</g>
	</g>
</g>
<rect x="353.3" y="482.898" fill="#FFFFFF" stroke="#000000" stroke-miterlimit="10" width="14.4" height="144.002"/>
<rect x="382.1" y="504.498" fill="#FFFFFF" stroke="#000000" stroke-miterlimit="10" width="14.4" height="100.801"/>
<rect x="418.1" y="504.498" fill="#FFFFFF" stroke="#000000" stroke-miterlimit="10" width="14.4" height="100.801"/>
<rect x="317.3" y="482.898" fill="#FFFFFF" stroke="#000000" stroke-miterlimit="10" width="14.4" height="144.002"/>
<rect x="288.5" y="461.299" fill="#FFFFFF" stroke="#000000" stroke-miterlimit="10" width="14.399" height="187.201"/>
<rect x="446.899" y="526.1" fill="#FFFFFF" stroke="#000000" stroke-miterlimit="10" width="14.399" height="57.6"/>
<rect x="418.1" y="504.496" fill="none" width="14.4" height="100.803"/>
<text transform="matrix(4.489659e-011 -1 1 4.489659e-011 428.6201 585.918)" font-family="'MyriadPro-Regular'" font-size="12">Convolution</text>
<rect x="353.3" y="482.898" fill="none" width="14.4" height="144.002"/>
<text transform="matrix(4.489659e-011 -1 1 4.489659e-011 363.8193 585.9199)" font-family="'MyriadPro-Regular'" font-size="12">Convolution</text>
<rect x="288.5" y="461.297" fill="none" width="14.399" height="187.203"/>
<text transform="matrix(4.489659e-011 -1 1 4.489659e-011 299.0195 585.918)" font-family="'MyriadPro-Regular'" font-size="12">Convolution</text>
<rect x="317.3" y="482.9" fill="none" width="14.4" height="144.002"/>
<text transform="matrix(4.489659e-011 -1 1 4.489659e-011 327.8193 588.0449)" font-family="'MyriadPro-Regular'" font-size="12">Downsample</text>
<rect x="382.1" y="504.496" fill="none" width="14.4" height="100.803"/>
<text transform="matrix(4.489659e-011 -1 1 4.489659e-011 392.6191 588.043)" font-family="'MyriadPro-Regular'" font-size="12">Downsample</text>
<g>
	<line fill="none" x1="367.7" y1="554.9" x2="382.1" y2="554.9"/>
	<g>
		<line fill="none" stroke="#000000" stroke-miterlimit="10" x1="367.7" y1="554.9" x2="378.569" y2="554.9"/>
		<g>
			<polygon points="382.1,554.9 377.126,556.934 378.306,554.9 377.126,552.867 			"/>
		</g>
	</g>
</g>
<g>
	<line fill="none" x1="302.901" y1="554.9" x2="317.3" y2="554.9"/>
	<g>
		<line fill="none" stroke="#000000" stroke-miterlimit="10" x1="302.901" y1="554.9" x2="313.771" y2="554.9"/>
		<g>
			<polygon points="317.3,554.9 312.325,556.934 313.507,554.9 312.325,552.867 			"/>
		</g>
	</g>
</g>
<g>
	<line fill="none" x1="331.7" y1="554.9" x2="353.3" y2="554.9"/>
	<g>
		<line fill="none" stroke="#000000" stroke-miterlimit="10" x1="331.7" y1="554.9" x2="349.771" y2="554.9"/>
		<g>
			<polygon points="353.3,554.9 348.325,556.934 349.507,554.9 348.325,552.869 			"/>
		</g>
	</g>
</g>
<g>
	<line fill="none" x1="396.5" y1="554.9" x2="418.1" y2="554.9"/>
	<g>
		<line fill="none" stroke="#000000" stroke-miterlimit="10" x1="396.5" y1="554.9" x2="414.569" y2="554.9"/>
		<g>
			<polygon points="418.1,554.9 413.126,556.934 414.306,554.9 413.126,552.869 			"/>
		</g>
	</g>
</g>
<g>
	<line fill="none" x1="266.9" y1="554.9" x2="288.5" y2="554.9"/>
	<g>
		<line fill="none" stroke="#000000" stroke-miterlimit="10" x1="274.1" y1="554.9" x2="284.97" y2="554.9"/>
		<g>
			<polygon points="288.5,554.9 283.526,556.934 284.706,554.9 283.526,552.867 			"/>
		</g>
	</g>
</g>
<rect x="194.901" y="302.899" fill="none" width="14.4" height="72.001"/>
<text transform="matrix(4.489659e-011 -1 1 4.489659e-011 205.4209 353.6904)" font-family="'MyriadPro-Regular'" font-size="12">8x8x3</text>
<g>
	<g>
		<line fill="none" stroke="#000000" stroke-miterlimit="10" x1="245.301" y1="418.1" x2="245.301" y2="378.43"/>
		<g>
			<polygon points="245.301,374.9 247.334,379.875 245.301,378.693 243.269,379.875 			"/>
		</g>
	</g>
</g>
<g>
	<g>
		<line fill="none" stroke="#000000" stroke-miterlimit="10" x1="274.101" y1="418.1" x2="274.101" y2="378.43"/>
		<g>
			<polygon points="274.101,374.9 276.134,379.875 274.101,378.693 272.069,379.875 			"/>
		</g>
	</g>
</g>
<rect x="346.1" y="281.301" fill="#FFFFFF" stroke="#000000" stroke-miterlimit="10" width="14.4" height="115.199"/>
<g>
	<g>
		<line fill="none" stroke="#000000" stroke-miterlimit="10" x1="425.301" y1="418.1" x2="425.301" y2="400.03"/>
		<g>
			<polygon points="425.301,396.5 427.334,401.475 425.301,400.295 423.268,401.475 			"/>
		</g>
	</g>
</g>
<g>
	<g>
		<line fill="none" stroke="#000000" stroke-miterlimit="10" x1="504.5" y1="338.9" x2="515.371" y2="338.9"/>
		<g>
			<polygon points="518.9,338.9 513.926,340.933 515.107,338.9 513.926,336.867 			"/>
		</g>
	</g>
</g>
<rect x="518.9" y="324.5" fill="none" width="21.6" height="28.801"/>
<text transform="matrix(1 0 0 1 522.248 341.5391)" font-family="'MyriadPro-Regular'" font-size="24">...</text>
<g>
	<g>
		<line fill="none" stroke="#000000" stroke-miterlimit="10" x1="540.5" y1="338.9" x2="551.369" y2="338.9"/>
		<g>
			<polygon points="554.9,338.9 549.926,340.934 551.105,338.9 549.926,336.868 			"/>
		</g>
	</g>
</g>
<g>
	<g>
		<line fill="none" stroke="#000000" stroke-miterlimit="10" x1="569.301" y1="338.9" x2="580.17" y2="338.9"/>
		<g>
			<polygon points="583.699,338.9 578.725,340.934 579.906,338.9 578.725,336.868 			"/>
		</g>
	</g>
</g>
<rect x="554.9" y="295.701" fill="#FFFFFF" stroke="#000000" stroke-miterlimit="10" width="14.4" height="86.399"/>
<rect x="346.1" y="281.301" fill="none" width="14.4" height="115.199"/>
<text transform="matrix(4.489659e-011 -1 1 4.489659e-011 356.6201 387.7627)" font-family="'MyriadPro-Regular'" font-size="12">Upsample: 16x16x3</text>
<rect x="554.9" y="295.7" fill="none" width="14.4" height="86.4"/>
<text transform="matrix(4.489659e-011 -1 1 4.489659e-011 565.4209 354.5352)" font-family="'MyriadPro-Regular'" font-size="12">toRGB</text>
<image overflow="visible" width="16" height="16" xlink:href="../img/gen6 - fadein/16/117.png"  transform="matrix(3.6 0 0 3.6 583.6992 310.1006)">
</image>
<rect x="151.7" y="410.9" fill="none" width="72" height="14.399"/>
<text transform="matrix(1 0 0 1 156.6748 421.4199)" font-family="'MyriadPro-Regular'" font-size="12">Input Vector</text>
<g>
	<g>
		<line fill="none" stroke="#000000" stroke-miterlimit="10" x1="209.301" y1="554.9" x2="220.17" y2="554.9"/>
		<g>
			<polygon points="223.7,554.9 218.726,556.934 219.906,554.9 218.726,552.867 			"/>
		</g>
	</g>
</g>
<g>
	<g>
		<line fill="none" stroke="#000000" stroke-miterlimit="10" x1="238.101" y1="554.9" x2="248.97" y2="554.9"/>
		<g>
			<polygon points="252.5,554.9 247.525,556.934 248.706,554.9 247.525,552.867 			"/>
		</g>
	</g>
</g>
<rect x="223.7" y="511.701" fill="#FFFFFF" stroke="#000000" stroke-miterlimit="10" width="14.4" height="86.398"/>
<rect x="223.701" y="511.699" fill="none" width="14.399" height="86.4"/>
<text transform="matrix(4.489659e-011 -1 1 4.489659e-011 234.2212 577.2676)" font-family="'MyriadPro-Regular'" font-size="12">fromRGB</text>
<rect x="252.5" y="540.5" fill="none" width="21.601" height="28.801"/>
<text transform="matrix(1 0 0 1 255.8486 557.5391)" font-family="'MyriadPro-Regular'" font-size="24">...</text>
<rect x="281.3" y="648.5" fill="none" width="57.6" height="14.4"/>
<text transform="matrix(1 0 0 1 289.1543 659.0195)" font-family="'MyriadPro-Regular'" font-size="12">32x32x3</text>
<rect x="346.101" y="626.9" fill="none" width="57.6" height="14.4"/>
<text transform="matrix(1 0 0 1 353.9551 637.4199)" font-family="'MyriadPro-Regular'" font-size="12">16x16x3</text>
<rect x="410.9" y="605.301" fill="none" width="57.6" height="14.398"/>
<text transform="matrix(1 0 0 1 424.9102 615.8203)" font-family="'MyriadPro-Regular'" font-size="12">8x8x3</text>
<rect x="446.9" y="526.1" fill="none" width="14.399" height="57.6"/>
<text transform="matrix(4.489659e-011 -1 1 4.489659e-011 457.4209 570.6133)" font-family="'MyriadPro-Regular'" font-size="12">Dense</text>
<polyline fill="none" stroke="#000000" stroke-miterlimit="10" points="461.3,569.301 475.7,554.9 461.3,540.5 "/>
<polyline fill="none" stroke="#000000" stroke-miterlimit="10" points="461.3,547.699 475.7,554.9 461.3,562.1 "/>
<g>
	<g>
		<line fill="none" stroke="#000000" stroke-miterlimit="10" x1="461.3" y1="554.9" x2="486.569" y2="554.9"/>
		<g>
			<polygon points="490.1,554.9 485.125,556.932 486.306,554.9 485.125,552.867 			"/>
		</g>
	</g>
</g>
<rect x="490.1" y="547.699" fill="none" width="151.2" height="14.4"/>
<text transform="matrix(1 0 0 1 490.0996 558.2188)" font-family="'MyriadPro-Regular'" font-size="12">Prediction: 0 for fake, 1 for </text>
<image overflow="visible" width="16" height="16" xlink:href="../img/gen6 - fadein/16/117.png"  transform="matrix(3.6 0 0 3.6 151.7002 526.0996)">
</image>
<rect x="151.7" y="259.7" fill="none" width="194.399" height="14.399"/>
<text transform="matrix(1 0 0 1 151.7002 273.9004)" font-family="'MyriadPro-Regular'" font-size="20">Generator</text>
<rect x="151.7" y="454.1" fill="none" width="122.4" height="14.399"/>
<text transform="matrix(1 0 0 1 151.7002 468.2988)" font-family="'MyriadPro-Regular'" font-size="20">Discriminator</text>
</svg>
